# xmcd
#
# Track frame offsets:
# 150
# 17313
# 39613
# 59038
# 80522
# 103884
# 124356
# 143599
# 171713
# 189758
#
# Disc length: 2829 seconds
#
#
# Revision: 2
# Processed by: cddbd v1.5.2PL0 Copyright (c) Steve Scherf et al.
# Submitted via: FreeRIP 2.945 
#
DISCID=8a0b0b0a
DTITLE=Música no Evangelho - Nando Cordel
DYEAR=2003
DGENRE=New Age
TTITLE0=Pai Nosso
TTITLE1=A Paciência
TTITLE2=A Caridade Segundo São Paulo
TTITLE3=O Óbulo da Viúva
TTITLE4=O Homen de Bem
TTITLE5=Pagar o Mal com o Bem
TTITLE6=O Ódio
TTITLE7=Perdão das Ofensas
TTITLE8=Dom de Curar
TTITLE9=Deus Consola
EXTD=YEAR: 2003
EXTT0=
EXTT1=
EXTT2=
EXTT3=
EXTT4=
EXTT5=
EXTT6=
EXTT7=
EXTT8=
EXTT9=
PLAYORDER=
